<svg height="512pt" viewBox="0 -54 512 512" width="512pt" xmlns="http://www.w3.org/2000/svg"><path d="m512 228.222656v-204.777344c0-12.925781-10.515625-23.445312-23.445312-23.445312h-26.308594c-4.132813 0-7.484375 3.351562-7.484375 7.484375s3.351562 7.484375 7.484375 7.484375h26.308594c4.675781 0 8.480468 3.804688 8.480468 8.476562v164.789063c-9.199218-13.21875-22.171875-23.699219-37.59375-29.839844 9.09375-13.816406 14.398438-30.339843 14.398438-48.078125 0-48.34375-39.328125-87.675781-87.671875-87.675781s-87.671875 39.332031-87.671875 87.675781c0 17.753906 5.308594 34.289063 14.417968 48.109375-3.90625 1.5625-7.679687 3.421875-11.308593 5.5625l-.890625-3.632812c-.820313-3.351563-3.820313-5.703125-7.265625-5.703125-3.449219 0-6.449219 2.355468-7.269531 5.703125l-2.464844 10.074219c-1.246094 5.09375-4.273438 9.59375-8.414063 12.707031v-159.691407c0-4.675781 3.804688-8.480468 8.480469-8.480468h143.996094c4.132812 0 7.484375-3.347656 7.484375-7.480469s-3.351563-7.484375-7.484375-7.484375h-144c-12.925782 0-23.441406 10.515625-23.441406 23.445312v204.777344c0 12.925782 10.515624 23.445313 23.441406 23.445313h11.398437l-109.976562 109.976562c-7.261719 7.261719-7.261719 19.078125 0 26.335938l10.324219 10.328125c3.515624 3.515625 8.195312 5.453125 13.167968 5.453125s9.652344-1.9375 13.167969-5.453125l146.640625-146.640625h34.875c-.867188.453125-1.746094.890625-2.648438 1.289062-2.707031 1.199219-4.453124 3.882813-4.453124 6.84375 0 2.960938 1.746093 5.644531 4.453124 6.839844 12.652344 5.597656 22.171876 16.960937 25.460938 30.398437l4.296875 17.566407c.820313 3.347656 3.820313 5.703125 7.269531 5.703125 3.445313 0 6.445313-2.355469 7.265625-5.703125l4.300781-17.566407c3.289063-13.4375 12.808594-24.800781 25.460938-30.398437 2.707031-1.195313 4.453125-3.878906 4.453125-6.839844 0-2.964843-1.746094-5.644531-4.453125-6.84375-.902344-.398437-1.78125-.835937-2.648438-1.289062h16.421876c11.734374 0 21.484374-8.667969 23.183593-19.933594.007813-.046875.011719-.09375.019531-.140625.15625-1.101562.242188-2.226562.242188-3.371094zm-125.832031-190.617187c40.089843 0 72.707031 32.617187 72.707031 72.707031s-32.617188 72.707031-72.707031 72.707031c-40.09375 0-72.707031-32.617187-72.707031-72.707031s32.613281-72.707031 72.707031-72.707031zm-92.722657 147.582031c1.726563 2.703125 3.789063 5.179688 6.132813 7.367188-2.34375 2.183593-4.40625 4.664062-6.132813 7.367187-1.722656-2.703125-3.785156-5.183594-6.128906-7.367187 2.34375-2.1875 4.40625-4.664063 6.128906-7.367188zm-82.167968 202.539062c-.933594.929688-2.019532 1.070313-2.585938 1.070313s-1.652344-.140625-2.585937-1.070313l-10.328125-10.328124c-1.425782-1.425782-1.425782-3.746094 0-5.171876l152.703125-152.703124c.714843-.710938 1.648437-1.070313 2.585937-1.070313s1.875.359375 2.585938 1.070313l10.328125 10.328124c1.425781 1.425782 1.425781 3.746094 0 5.171876l-3.867188 3.867187c-.003906 0-.007812.003906-.011719.007813zm226.476562-103.195312c-4.140625-9.789062-10.855468-18.355469-19.328125-24.730469 8.472657-6.378906 15.1875-14.945312 19.328125-24.734375 1.972656 4.664063 4.535156 9.046875 7.589844 13.054688.304688.492187.660156.949218 1.066406 1.355468 3.117188 3.855469 6.695313 7.332032 10.667969 10.320313-8.472656 6.378906-15.183594 14.945313-19.324219 24.734375zm50.800782-47.828125h-33c-2.855469-4.289063-4.992188-9.066406-6.234376-14.144531l-4.300781-17.566406c-.820312-3.347657-3.820312-5.703126-7.265625-5.703126-3.449218 0-6.449218 2.355469-7.269531 5.703126l-4.300781 17.566406c-1.242188 5.078125-3.378906 9.855468-6.234375 14.144531h-40.441407c.324219-1.382813.507813-2.808594.507813-4.265625 0-4.972656-1.9375-9.652344-5.453125-13.167969l-10.328125-10.328125c-7.257813-7.257812-19.070313-7.257812-26.335937 0l-27.757813 27.761719h-26.363281c-4.675782 0-8.476563-3.804687-8.476563-8.480469v-26.25c4.136719 3.113282 7.164063 7.613282 8.410157 12.707032l2.46875 10.074218c.820312 3.347656 3.820312 5.703125 7.265624 5.703125 3.449219 0 6.449219-2.355469 7.269532-5.703125l2.46875-10.074218c1.652344-6.757813 6.4375-12.46875 12.796875-15.285157 2.707031-1.195312 4.453125-3.878906 4.453125-6.839843 0-2.960938-1.746094-5.644532-4.453125-6.84375-3.664063-1.621094-6.796875-4.207032-9.121094-7.394532 4.957031-3.203125 10.261719-5.726562 15.867187-7.550781 15.976563 16.761719 38.511719 27.21875 63.441407 27.21875 24.933593 0 47.472656-10.464844 63.453125-27.234375 26.203125 8.488281 44.839844 31.820312 47.160156 59.496094-.914062 3.699218-4.25 6.457031-8.226562 6.457031zm0 0"/><path d="m251.402344 231.738281c.007812-.050781.011718-.101562.019531-.152343.15625-1.097657.242187-2.222657.242187-3.363282v-204.777344c0-12.925781-10.515624-23.445312-23.441406-23.445312h-204.777344c-12.929687 0-23.445312 10.519531-23.445312 23.445312v204.777344c0 12.929688 10.515625 23.445313 23.445312 23.445313h204.777344c11.730469 0 21.476563-8.664063 23.179688-19.929688zm-236.1875-1.519531c1.527344-18.183594 10.066406-34.714844 24.050781-46.570312 3.152344-2.671876 3.542969-7.394532.871094-10.546876-2.671875-3.152343-7.394531-3.542968-10.546875-.871093-5.628906 4.769531-10.515625 10.171875-14.625 16.054687v-164.839844c0-4.675781 3.804687-8.480468 8.480468-8.480468h204.777344c4.675782 0 8.476563 3.804687 8.476563 8.480468v164.789063c-9.199219-13.222656-22.171875-23.699219-37.589844-29.839844 9.09375-13.816406 14.398437-30.339843 14.398437-48.082031 0-48.34375-39.332031-87.671875-87.675781-87.671875s-87.671875 39.328125-87.671875 87.671875 39.328125 87.671875 87.671875 87.671875c24.9375 0 47.476563-10.464844 63.457031-27.234375 26.199219 8.488281 44.839844 31.820312 47.15625 59.496094-.910156 3.699218-4.246093 6.457031-8.222656 6.457031h-204.777344c-3.984374 0-7.332031-2.769531-8.230468-6.484375zm110.617187-47.199219c-40.089843 0-72.707031-32.617187-72.707031-72.707031s32.617188-72.707031 72.707031-72.707031c40.09375 0 72.707031 32.617187 72.707031 72.707031s-32.613281 72.707031-72.707031 72.707031zm0 0"/><path d="m103.289062 110.3125c0 7.4375-6.027343 13.464844-13.460937 13.464844s-13.464844-6.027344-13.464844-13.464844c0-7.433594 6.03125-13.460938 13.464844-13.460938s13.460937 6.027344 13.460937 13.460938zm0 0"/><path d="m175.300781 110.3125c0 7.4375-6.027343 13.464844-13.460937 13.464844-7.4375 0-13.464844-6.027344-13.464844-13.464844 0-7.433594 6.027344-13.460938 13.464844-13.460938 7.433594 0 13.460937 6.027344 13.460937 13.460938zm0 0"/><path d="m363.625 110.3125c0 7.4375-6.027344 13.464844-13.464844 13.464844-7.433594 0-13.460937-6.027344-13.460937-13.464844 0-7.433594 6.027343-13.460938 13.460937-13.460938 7.4375 0 13.464844 6.027344 13.464844 13.460938zm0 0"/><path d="m435.636719 110.3125c0 7.4375-6.03125 13.464844-13.464844 13.464844s-13.460937-6.027344-13.460937-13.464844c0-7.433594 6.027343-13.460938 13.460937-13.460938s13.464844 6.027344 13.464844 13.460938zm0 0"/><path d="m358.121094 139.757812c-3.425782 2.3125-4.324219 6.960938-2.011719 10.386719 6.757813 10.007813 17.996094 15.980469 30.058594 15.980469 12.234375 0 23.5625-6.109375 30.300781-16.34375 2.269531-3.453125 1.3125-8.089844-2.136719-10.363281-3.453125-2.273438-8.09375-1.316407-10.363281 2.136719-3.960938 6.011718-10.617188 9.605468-17.800781 9.605468-7.085938 0-13.6875-3.511718-17.65625-9.390625-2.316407-3.425781-6.964844-4.328125-10.390625-2.011719zm0 0"/><path d="m140.769531 144.671875h-29.875c-4.132812 0-7.484375 3.351563-7.484375 7.484375s3.351563 7.480469 7.484375 7.480469h29.875c4.132813 0 7.484375-3.347657 7.484375-7.480469s-3.351562-7.484375-7.484375-7.484375zm0 0"/><path d="m399.59375 298.039062c-6.363281-2.816406-11.148438-8.527343-12.800781-15.28125l-2.464844-10.078124c-.820313-3.351563-3.820313-5.703126-7.269531-5.703126-3.445313 0-6.449219 2.351563-7.269532 5.703126l-2.464843 10.074218c-1.652344 6.757813-6.4375 12.46875-12.800781 15.285156-2.707032 1.195313-4.453126 3.882813-4.453126 6.839844 0 2.964844 1.746094 5.644532 4.457032 6.84375 6.359375 2.8125 11.144531 8.527344 12.796875 15.28125l2.464843 10.078125c.820313 3.347657 3.824219 5.703125 7.269532 5.703125 3.449218 0 6.449218-2.355468 7.269531-5.703125l2.464844-10.078125c1.652343-6.753906 6.4375-12.46875 12.796875-15.28125 2.710937-1.199218 4.457031-3.882812 4.457031-6.84375 0-2.960937-1.746094-5.644531-4.453125-6.839844zm-22.535156 14.207032c-1.722656-2.703125-3.789063-5.179688-6.132813-7.367188 2.34375-2.183594 4.410157-4.664062 6.132813-7.367187 1.722656 2.703125 3.789062 5.183593 6.132812 7.367187-2.34375 2.1875-4.410156 4.664063-6.132812 7.367188zm0 0"/></svg>