<svg height="480pt" viewBox="0 0 480 480" width="480pt" xmlns="http://www.w3.org/2000/svg"><path d="m240 408c2.617188-.003906 5.066406-1.289062 6.558594-3.441406l25.441406-35.839844c10.050781-14.289062 15.621094-31.25 16-48.71875v-40h8c4.417969 0 8-3.582031 8-8v-32c0-4.417969-3.582031-8-8-8s-8 3.582031-8 8v24h-96v-40c0-4.417969-3.582031-8-8-8s-8 3.582031-8 8v40h-45.761719l20.882813-83.441406 24.878906-19.917969v28.398437c0 4.417969 3.582031 8 8 8s8-3.582031 8-8v-85.039062h96v101.039062c0 4.417969 3.582031 8 8 8s8-3.582031 8-8v-44.398437l25.121094 20.160156 27.757812 83.199219h-28.878906c-4.417969 0-8 3.582031-8 8s3.582031 8 8 8h40c2.574219-.011719 4.988281-1.261719 6.480469-3.359375 1.507812-2.082031 1.925781-4.761719 1.121093-7.199219l-32-96c-.484374-1.46875-1.40625-2.753906-2.640624-3.679687l-36.960938-29.601563v-44.960937c-.039062-.15625-.039062-.320313 0-.480469 0 0 0 0 0-.398438v-.960937c.042969-.128906.042969-.269531 0-.398437v-.480469l-56-88c-1.472656-2.28125-4.003906-3.660157-6.71875-3.660157-2.71875 0-5.246094 1.378907-6.722656 3.660157l-56 88v.480469c-.042969.128906-.042969.269531 0 .398437v.960937.398438c.039062.160156.039062.324219 0 .480469v44.960937l-36.957032 29.601563c-1.417968 1.058593-2.410156 2.589843-2.800781 4.316406l-24 96c-.609375 2.394531-.078125 4.933594 1.4375 6.882813.910157 1.375 2.226563 2.4375 3.761719 3.039062h72v38.398438c.007812 18.332031 5.742188 36.207031 16.398438 51.121093l25.121093 35.121094c1.492188 2.097656 3.90625 3.347656 6.480469 3.359375zm0-385.121094 41.441406 65.121094h-82.882812zm32 257.121094v16h-64v-16zm-64 38.398438v-6.398438h64v7.28125c-.289062 14.339844-4.859375 28.269531-13.121094 40l-18.878906 26.878906-18.558594-26.160156c-8.683594-12.136719-13.382812-26.675781-13.441406-41.601562zm0 0"/><path d="m264 152c-4.417969 0-8 3.582031-8 8 0 8.835938-7.164062 16-16 16s-16-7.164062-16-16 7.164062-16 16-16c4.417969 0 8-3.582031 8-8s-3.582031-8-8-8c-17.671875 0-32 14.328125-32 32s14.328125 32 32 32 32-14.328125 32-32c0-4.417969-3.582031-8-8-8zm0 0"/><path d="m256 224h-32c-4.417969 0-8 3.582031-8 8s3.582031 8 8 8h32c4.417969 0 8-3.582031 8-8s-3.582031-8-8-8zm0 0"/><path d="m330.238281 94.160156 16 27.679688c2.199219 3.808594 7.058594 5.132812 10.882813 2.960937l11.679687-6.722656c2.542969 1.707031 5.21875 3.203125 8 4.480469v13.441406c0 4.417969 3.582031 8 8 8h32c4.417969 0 8-3.582031 8-8v-13.441406c2.789063-1.257813 5.46875-2.757813 8-4.480469l11.679688 6.722656c1.84375 1.066407 4.039062 1.355469 6.09375.800781 2.058593-.554687 3.808593-1.910156 4.867187-3.761718l16-27.679688c1.066406-1.84375 1.355469-4.039062.800782-6.097656-.558594-2.054688-1.910157-3.808594-3.761719-4.863281l-11.601563-6.71875c0-1.519531 0-2.960938 0-4.480469s0-2.960938 0-4.480469l11.121094-6.71875c1.851562-1.054687 3.207031-2.808593 3.761719-4.863281.554687-2.058594.265625-4.253906-.800781-6.097656l-16-27.679688c-1.054688-1.851562-2.808594-3.207031-4.863282-3.761718-2.058594-.554688-4.253906-.265626-6.097656.800781l-11.601562 6.722656c-2.542969-1.703125-5.21875-3.199219-8-4.480469v-13.441406c0-4.417969-3.582032-8-8-8h-32c-4.417969 0-8 3.582031-8 8v13.441406c-2.78125 1.277344-5.457032 2.773438-8 4.480469l-11.277344-6.722656c-3.824219-2.171875-8.683594-.847657-10.882813 2.960937l-16 27.679688c-1.074219 1.835937-1.375 4.023437-.832031 6.078125.539062 2.054687 1.875 3.8125 3.714844 4.882812l11.679687 6.71875c-.320312 2.980469-.320312 5.980469 0 8.960938l-11.679687 6.71875c-1.839844 1.070312-3.175782 2.828125-3.714844 4.882812-.542969 2.054688-.242188 4.242188.832031 6.078125zm31.042969-14.878906c-.960938-4.808594-.960938-9.753906 0-14.5625.777344-3.433594-.78125-6.972656-3.839844-8.71875l-9.363281-5.359375 8-13.921875 9.363281 5.441406c2.941406 1.6875 6.628906 1.335938 9.199219-.878906 3.71875-3.203125 8.003906-5.671875 12.640625-7.28125 3.167969-1.144531 5.277344-4.152344 5.277344-7.519531v-10.480469h16v10.800781c.015625 3.386719 2.164062 6.402344 5.363281 7.519531 4.617187 1.644532 8.898437 4.113282 12.636719 7.28125 2.570312 2.210938 6.257812 2.566407 9.203125.878907l9.277343-5.441407 8 13.921876-9.277343 5.039062c-3.03125 1.769531-4.554688 5.304688-3.761719 8.71875.960938 4.808594.960938 9.753906 0 14.5625-.792969 3.414062.730469 6.949219 3.761719 8.71875l9.277343 5.359375-8 13.921875-9.277343-5.441406c-2.945313-1.6875-6.632813-1.335938-9.203125.878906-3.738282 3.167969-8.019532 5.636719-12.636719 7.28125-3.199219 1.117188-5.347656 4.132812-5.363281 7.519531v10.480469h-16v-10.800781c0-3.367188-2.109375-6.375-5.277344-7.519531-4.636719-1.609376-8.921875-4.078126-12.640625-7.28125-2.570313-2.210938-6.257813-2.566407-9.199219-.878907l-9.363281 5.441407-8-13.921876 9.363281-5.039062c3.058594-1.746094 4.617188-5.285156 3.839844-8.71875zm0 0"/><path d="m400.558594 96c13.257812 0 24-10.746094 24-24s-10.742188-24-24-24c-13.253906 0-24 10.746094-24 24s10.746094 24 24 24zm0-32c4.417968 0 8 3.582031 8 8s-3.582032 8-8 8c-4.417969 0-8-3.582031-8-8s3.582031-8 8-8zm0 0"/><path d="m451.441406 387.039062c7.695313 4.175782 12.507813 12.207032 12.558594 20.960938 0 4.417969 3.582031 8 8 8s8-3.582031 8-8c0-12.589844-5.929688-24.445312-16-32 0-1.441406 0-2.800781 0-4.078125-.171875-30.832031-23.679688-56.511719-54.371094-59.402344s-58.582031 17.945313-64.507812 48.199219c-5.671875-.917969-11.453125-.917969-17.121094 0v-40.71875c0-4.417969-3.582031-8-8-8s-8 3.582031-8 8v50.878906c0 2.609375 1.273438 5.050782 3.40625 6.546875 2.132812 1.496094 4.863281 1.859375 7.3125.972657 8.609375-3.113282 18.035156-3.113282 26.640625 0 2.402344.875 5.078125.546874 7.199219-.878907 2.160156-1.457031 3.472656-3.875 3.519531-6.480469.289063-24.300781 20.222656-43.765624 44.523437-43.480468 24.300782.289062 43.765626 20.222656 43.476563 44.519531-.003906 2.28125-.191406 4.554687-.558594 6.800781-.503906 3.269532 1.050781 6.511719 3.921875 8.160156zm0 0"/><path d="m133.441406 362.800781c1.140625 3.75 4.832032 6.121094 8.71875 5.597657 5.34375-.726563 10.78125-.402344 16 .960937 2.378906.558594 4.882813 0 6.800782-1.519531 1.929687-1.527344 3.050781-3.859375 3.039062-6.320313v-41.519531c0-4.417969-3.582031-8-8-8s-8 3.582031-8 8v32c-1.839844 0-3.601562 0-5.359375 0-13.453125-33.890625-49.078125-53.453125-84.894531-46.617188-35.816406 6.839844-61.730469 38.152344-61.746094 74.617188 0 4.417969 3.582031 8 8 8s8-3.582031 8-8c.070312-29.726562 21.894531-54.921875 51.304688-59.226562 29.414062-4.308594 57.546874 13.570312 66.136718 42.027343zm0 0"/><path d="m328 440c-8.605469-.007812-16.855469 3.453125-22.878906 9.601562-9.851563-14.546874-28.039063-20.964843-44.835938-15.816406-16.796875 5.144532-28.273437 20.648438-28.285156 38.214844 0 4.417969 3.582031 8 8 8s8-3.582031 8-8c0-13.253906 10.746094-24 24-24s24 10.746094 24 24c0 4.417969 3.582031 8 8 8s8-3.582031 8-8c0-8.835938 7.164062-16 16-16s16 7.164062 16 16c0 4.417969 3.582031 8 8 8s8-3.582031 8-8c0-17.671875-14.328125-32-32-32zm0 0"/><path d="m152 384c-11.53125.011719-22.492188 4.996094-30.078125 13.679688-10.070313-17.105469-30.339844-25.351563-49.488281-20.132813-19.148438 5.214844-32.433594 22.605469-32.433594 42.453125 0 4.417969 3.582031 8 8 8s8-3.582031 8-8c-.816406-15.464844 11.054688-28.664062 26.519531-29.480469 15.464844-.816406 28.664063 11.054688 29.480469 26.519531-14.121094 3.648438-23.988281 16.378907-24 30.960938 0 4.417969 3.582031 8 8 8s8-3.582031 8-8c0-8.835938 7.164062-16 16-16s16 7.164062 16 16c0 4.417969 3.582031 8 8 8s8-3.582031 8-8c0-14.222656-9.386719-26.738281-23.039062-30.71875 3.34375-11.46875 14.609374-18.730469 26.433593-17.039062 11.824219 1.6875 20.605469 11.8125 20.605469 23.757812 0 4.417969 3.582031 8 8 8s8-3.582031 8-8c0-22.089844-17.910156-40-40-40zm0 0"/><path d="m424 416c0 4.417969 3.582031 8 8 8s8-3.582031 8-8c0-22.089844-17.910156-40-40-40s-40 17.910156-40 40c0 4.417969 3.582031 8 8 8s8-3.582031 8-8c0-13.253906 10.746094-24 24-24s24 10.746094 24 24zm0 0"/><path d="m448 440c-17.671875 0-32 14.328125-32 32 0 4.417969 3.582031 8 8 8s8-3.582031 8-8c0-8.835938 7.164062-16 16-16s16 7.164062 16 16c0 4.417969 3.582031 8 8 8s8-3.582031 8-8c0-17.671875-14.328125-32-32-32zm0 0"/><path d="m416 256v-72c0-4.417969-3.582031-8-8-8s-8 3.582031-8 8v72c0 4.417969 3.582031 8 8 8s8-3.582031 8-8zm0 0"/><path d="m456 192c4.417969 0 8-3.582031 8-8v-32c0-4.417969-3.582031-8-8-8s-8 3.582031-8 8v32c0 4.417969 3.582031 8 8 8zm0 0"/><path d="m144 96c4.417969 0 8-3.582031 8-8v-40c0-4.417969-3.582031-8-8-8s-8 3.582031-8 8v40c0 4.417969 3.582031 8 8 8zm0 0"/><path d="m32 240c4.417969 0 8-3.582031 8-8v-104c0-4.417969-3.582031-8-8-8s-8 3.582031-8 8v104c0 4.417969 3.582031 8 8 8zm0 0"/><path d="m104 184c4.417969 0 8-3.582031 8-8v-56c0-4.417969-3.582031-8-8-8s-8 3.582031-8 8v56c0 4.417969 3.582031 8 8 8zm0 0"/><path d="m72 280c4.417969 0 8-3.582031 8-8v-48c0-4.417969-3.582031-8-8-8s-8 3.582031-8 8v48c0 4.417969 3.582031 8 8 8zm0 0"/><path d="m448 288c0 4.417969 3.582031 8 8 8s8-3.582031 8-8v-48c0-4.417969-3.582031-8-8-8s-8 3.582031-8 8zm0 0"/></svg>